<mxfile host="app.diagrams.net" agent="Mozilla/5.0 (Windows NT 10.0; Win64; x64) AppleWebKit/537.36 (KHTML, like Gecko) Chrome/127.0.0.0 Safari/537.36" version="24.7.6">
  <diagram name="Page-1" id="JGLrJj6uudFdhgXFJNZL">
    <mxGraphModel dx="1434" dy="772" grid="1" gridSize="10" guides="1" tooltips="1" connect="1" arrows="1" fold="1" page="1" pageScale="1" pageWidth="827" pageHeight="1169" math="0" shadow="0">
      <root>
        <mxCell id="0" />
        <mxCell id="1" parent="0" />
        <mxCell id="ZHzJpgnRnQhu1aiCEaPM-1" value="" style="shape=ext;double=1;whiteSpace=wrap;html=1;aspect=fixed;" vertex="1" parent="1">
          <mxGeometry x="100" y="90" width="80" height="80" as="geometry" />
        </mxCell>
        <mxCell id="ZHzJpgnRnQhu1aiCEaPM-2" value="" style="shape=sumEllipse;perimeter=ellipsePerimeter;whiteSpace=wrap;html=1;backgroundOutline=1;" vertex="1" parent="1">
          <mxGeometry x="320" y="90" width="80" height="80" as="geometry" />
        </mxCell>
        <mxCell id="ZHzJpgnRnQhu1aiCEaPM-3" value="" style="shape=sumEllipse;perimeter=ellipsePerimeter;whiteSpace=wrap;html=1;backgroundOutline=1;" vertex="1" parent="1">
          <mxGeometry x="530" y="90" width="80" height="80" as="geometry" />
        </mxCell>
        <mxCell id="ZHzJpgnRnQhu1aiCEaPM-4" value="" style="shape=sumEllipse;perimeter=ellipsePerimeter;whiteSpace=wrap;html=1;backgroundOutline=1;" vertex="1" parent="1">
          <mxGeometry x="320" y="280" width="80" height="80" as="geometry" />
        </mxCell>
        <mxCell id="ZHzJpgnRnQhu1aiCEaPM-5" value="" style="shape=sumEllipse;perimeter=ellipsePerimeter;whiteSpace=wrap;html=1;backgroundOutline=1;" vertex="1" parent="1">
          <mxGeometry x="530" y="280" width="80" height="80" as="geometry" />
        </mxCell>
        <mxCell id="ZHzJpgnRnQhu1aiCEaPM-6" value="" style="shape=sumEllipse;perimeter=ellipsePerimeter;whiteSpace=wrap;html=1;backgroundOutline=1;" vertex="1" parent="1">
          <mxGeometry x="100" y="280" width="80" height="80" as="geometry" />
        </mxCell>
        <mxCell id="ZHzJpgnRnQhu1aiCEaPM-7" value="" style="shape=sumEllipse;perimeter=ellipsePerimeter;whiteSpace=wrap;html=1;backgroundOutline=1;" vertex="1" parent="1">
          <mxGeometry x="325" y="470" width="80" height="80" as="geometry" />
        </mxCell>
        <mxCell id="ZHzJpgnRnQhu1aiCEaPM-8" value="" style="shape=sumEllipse;perimeter=ellipsePerimeter;whiteSpace=wrap;html=1;backgroundOutline=1;" vertex="1" parent="1">
          <mxGeometry x="535" y="470" width="80" height="80" as="geometry" />
        </mxCell>
        <mxCell id="ZHzJpgnRnQhu1aiCEaPM-9" value="" style="shape=sumEllipse;perimeter=ellipsePerimeter;whiteSpace=wrap;html=1;backgroundOutline=1;" vertex="1" parent="1">
          <mxGeometry x="105" y="470" width="80" height="80" as="geometry" />
        </mxCell>
        <mxCell id="ZHzJpgnRnQhu1aiCEaPM-10" value="" style="shape=sumEllipse;perimeter=ellipsePerimeter;whiteSpace=wrap;html=1;backgroundOutline=1;" vertex="1" parent="1">
          <mxGeometry x="260" y="940" width="80" height="80" as="geometry" />
        </mxCell>
        <mxCell id="ZHzJpgnRnQhu1aiCEaPM-11" value="" style="shape=sumEllipse;perimeter=ellipsePerimeter;whiteSpace=wrap;html=1;backgroundOutline=1;" vertex="1" parent="1">
          <mxGeometry x="540" y="650" width="80" height="80" as="geometry" />
        </mxCell>
        <mxCell id="ZHzJpgnRnQhu1aiCEaPM-12" value="" style="shape=sumEllipse;perimeter=ellipsePerimeter;whiteSpace=wrap;html=1;backgroundOutline=1;" vertex="1" parent="1">
          <mxGeometry x="140" y="1089" width="80" height="80" as="geometry" />
        </mxCell>
        <mxCell id="ZHzJpgnRnQhu1aiCEaPM-13" value="" style="endArrow=none;html=1;rounded=0;" edge="1" parent="1" source="ZHzJpgnRnQhu1aiCEaPM-1" target="ZHzJpgnRnQhu1aiCEaPM-2">
          <mxGeometry width="50" height="50" relative="1" as="geometry">
            <mxPoint x="340" y="420" as="sourcePoint" />
            <mxPoint x="390" y="370" as="targetPoint" />
          </mxGeometry>
        </mxCell>
        <mxCell id="ZHzJpgnRnQhu1aiCEaPM-14" value="" style="endArrow=none;html=1;rounded=0;" edge="1" parent="1" source="ZHzJpgnRnQhu1aiCEaPM-2" target="ZHzJpgnRnQhu1aiCEaPM-3">
          <mxGeometry width="50" height="50" relative="1" as="geometry">
            <mxPoint x="190" y="140" as="sourcePoint" />
            <mxPoint x="330" y="140" as="targetPoint" />
          </mxGeometry>
        </mxCell>
        <mxCell id="ZHzJpgnRnQhu1aiCEaPM-15" value="" style="endArrow=none;html=1;rounded=0;" edge="1" parent="1" source="ZHzJpgnRnQhu1aiCEaPM-5" target="ZHzJpgnRnQhu1aiCEaPM-3">
          <mxGeometry width="50" height="50" relative="1" as="geometry">
            <mxPoint x="200" y="150" as="sourcePoint" />
            <mxPoint x="340" y="150" as="targetPoint" />
          </mxGeometry>
        </mxCell>
        <mxCell id="ZHzJpgnRnQhu1aiCEaPM-16" value="" style="endArrow=none;html=1;rounded=0;" edge="1" parent="1" source="ZHzJpgnRnQhu1aiCEaPM-4" target="ZHzJpgnRnQhu1aiCEaPM-5">
          <mxGeometry width="50" height="50" relative="1" as="geometry">
            <mxPoint x="210" y="160" as="sourcePoint" />
            <mxPoint x="350" y="160" as="targetPoint" />
          </mxGeometry>
        </mxCell>
        <mxCell id="ZHzJpgnRnQhu1aiCEaPM-17" value="" style="endArrow=none;html=1;rounded=0;" edge="1" parent="1" source="ZHzJpgnRnQhu1aiCEaPM-6" target="ZHzJpgnRnQhu1aiCEaPM-4">
          <mxGeometry width="50" height="50" relative="1" as="geometry">
            <mxPoint x="220" y="170" as="sourcePoint" />
            <mxPoint x="360" y="170" as="targetPoint" />
          </mxGeometry>
        </mxCell>
        <mxCell id="ZHzJpgnRnQhu1aiCEaPM-18" value="" style="endArrow=none;html=1;rounded=0;" edge="1" parent="1" source="ZHzJpgnRnQhu1aiCEaPM-6" target="ZHzJpgnRnQhu1aiCEaPM-9">
          <mxGeometry width="50" height="50" relative="1" as="geometry">
            <mxPoint x="230" y="180" as="sourcePoint" />
            <mxPoint x="370" y="180" as="targetPoint" />
          </mxGeometry>
        </mxCell>
        <mxCell id="ZHzJpgnRnQhu1aiCEaPM-19" value="" style="endArrow=none;html=1;rounded=0;" edge="1" parent="1" source="ZHzJpgnRnQhu1aiCEaPM-9" target="ZHzJpgnRnQhu1aiCEaPM-7">
          <mxGeometry width="50" height="50" relative="1" as="geometry">
            <mxPoint x="240" y="190" as="sourcePoint" />
            <mxPoint x="380" y="190" as="targetPoint" />
          </mxGeometry>
        </mxCell>
        <mxCell id="ZHzJpgnRnQhu1aiCEaPM-20" value="" style="endArrow=none;html=1;rounded=0;" edge="1" parent="1" source="ZHzJpgnRnQhu1aiCEaPM-7" target="ZHzJpgnRnQhu1aiCEaPM-8">
          <mxGeometry width="50" height="50" relative="1" as="geometry">
            <mxPoint x="250" y="200" as="sourcePoint" />
            <mxPoint x="390" y="200" as="targetPoint" />
          </mxGeometry>
        </mxCell>
        <mxCell id="ZHzJpgnRnQhu1aiCEaPM-21" value="" style="endArrow=none;html=1;rounded=0;" edge="1" parent="1" source="ZHzJpgnRnQhu1aiCEaPM-8" target="ZHzJpgnRnQhu1aiCEaPM-11">
          <mxGeometry width="50" height="50" relative="1" as="geometry">
            <mxPoint x="260" y="210" as="sourcePoint" />
            <mxPoint x="400" y="210" as="targetPoint" />
          </mxGeometry>
        </mxCell>
        <mxCell id="ZHzJpgnRnQhu1aiCEaPM-23" value="" style="endArrow=none;html=1;rounded=0;" edge="1" parent="1" source="ZHzJpgnRnQhu1aiCEaPM-12" target="ZHzJpgnRnQhu1aiCEaPM-44">
          <mxGeometry width="50" height="50" relative="1" as="geometry">
            <mxPoint x="280" y="230" as="sourcePoint" />
            <mxPoint x="420" y="230" as="targetPoint" />
          </mxGeometry>
        </mxCell>
        <mxCell id="ZHzJpgnRnQhu1aiCEaPM-24" value="My Pc" style="text;strokeColor=none;align=center;fillColor=none;html=1;verticalAlign=middle;whiteSpace=wrap;rounded=0;" vertex="1" parent="1">
          <mxGeometry x="110" y="170" width="60" height="30" as="geometry" />
        </mxCell>
        <mxCell id="ZHzJpgnRnQhu1aiCEaPM-26" value="10.30.0.1" style="text;strokeColor=none;align=center;fillColor=none;html=1;verticalAlign=middle;whiteSpace=wrap;rounded=0;" vertex="1" parent="1">
          <mxGeometry x="540" y="60" width="60" height="30" as="geometry" />
        </mxCell>
        <mxCell id="ZHzJpgnRnQhu1aiCEaPM-27" value="10.200.10.14" style="text;strokeColor=none;align=center;fillColor=none;html=1;verticalAlign=middle;whiteSpace=wrap;rounded=0;" vertex="1" parent="1">
          <mxGeometry x="540" y="360" width="60" height="30" as="geometry" />
        </mxCell>
        <mxCell id="ZHzJpgnRnQhu1aiCEaPM-28" value="103.147.138.250" style="text;strokeColor=none;align=center;fillColor=none;html=1;verticalAlign=middle;whiteSpace=wrap;rounded=0;" vertex="1" parent="1">
          <mxGeometry x="330" y="360" width="60" height="30" as="geometry" />
        </mxCell>
        <mxCell id="ZHzJpgnRnQhu1aiCEaPM-29" value="117.232..137.122" style="text;strokeColor=none;align=center;fillColor=none;html=1;verticalAlign=middle;whiteSpace=wrap;rounded=0;" vertex="1" parent="1">
          <mxGeometry x="105" y="250" width="60" height="30" as="geometry" />
        </mxCell>
        <mxCell id="ZHzJpgnRnQhu1aiCEaPM-30" value="117.216.207.105" style="text;strokeColor=none;align=center;fillColor=none;html=1;verticalAlign=middle;whiteSpace=wrap;rounded=0;" vertex="1" parent="1">
          <mxGeometry x="115" y="550" width="60" height="30" as="geometry" />
        </mxCell>
        <mxCell id="ZHzJpgnRnQhu1aiCEaPM-31" value="72.14.197.4" style="text;strokeColor=none;align=center;fillColor=none;html=1;verticalAlign=middle;whiteSpace=wrap;rounded=0;" vertex="1" parent="1">
          <mxGeometry x="335" y="555" width="60" height="30" as="geometry" />
        </mxCell>
        <mxCell id="ZHzJpgnRnQhu1aiCEaPM-32" value="*Lost" style="text;strokeColor=none;align=center;fillColor=none;html=1;verticalAlign=middle;whiteSpace=wrap;rounded=0;" vertex="1" parent="1">
          <mxGeometry x="545" y="440" width="60" height="30" as="geometry" />
        </mxCell>
        <mxCell id="ZHzJpgnRnQhu1aiCEaPM-33" value="72.14.237.138" style="text;strokeColor=none;align=center;fillColor=none;html=1;verticalAlign=middle;whiteSpace=wrap;rounded=0;" vertex="1" parent="1">
          <mxGeometry x="550" y="730" width="60" height="30" as="geometry" />
        </mxCell>
        <mxCell id="ZHzJpgnRnQhu1aiCEaPM-34" value="142.250.183.142" style="text;strokeColor=none;align=center;fillColor=none;html=1;verticalAlign=middle;whiteSpace=wrap;rounded=0;" vertex="1" parent="1">
          <mxGeometry x="265" y="1020" width="60" height="30" as="geometry" />
        </mxCell>
        <mxCell id="ZHzJpgnRnQhu1aiCEaPM-35" value="142.250.208.227" style="text;strokeColor=none;align=center;fillColor=none;html=1;verticalAlign=middle;whiteSpace=wrap;rounded=0;" vertex="1" parent="1">
          <mxGeometry x="150" y="1169" width="60" height="30" as="geometry" />
        </mxCell>
        <mxCell id="ZHzJpgnRnQhu1aiCEaPM-37" value="172.29.192.1" style="text;strokeColor=none;align=center;fillColor=none;html=1;verticalAlign=middle;whiteSpace=wrap;rounded=0;" vertex="1" parent="1">
          <mxGeometry x="335" y="170" width="60" height="30" as="geometry" />
        </mxCell>
        <mxCell id="ZHzJpgnRnQhu1aiCEaPM-38" value="" style="shape=sumEllipse;perimeter=ellipsePerimeter;whiteSpace=wrap;html=1;backgroundOutline=1;" vertex="1" parent="1">
          <mxGeometry x="420" y="710" width="80" height="80" as="geometry" />
        </mxCell>
        <mxCell id="ZHzJpgnRnQhu1aiCEaPM-39" value="" style="shape=sumEllipse;perimeter=ellipsePerimeter;whiteSpace=wrap;html=1;backgroundOutline=1;" vertex="1" parent="1">
          <mxGeometry x="410" y="580" width="80" height="80" as="geometry" />
        </mxCell>
        <mxCell id="ZHzJpgnRnQhu1aiCEaPM-40" value="" style="endArrow=none;html=1;rounded=0;" edge="1" parent="1" source="ZHzJpgnRnQhu1aiCEaPM-39" target="ZHzJpgnRnQhu1aiCEaPM-8">
          <mxGeometry width="50" height="50" relative="1" as="geometry">
            <mxPoint x="340" y="620" as="sourcePoint" />
            <mxPoint x="390" y="570" as="targetPoint" />
          </mxGeometry>
        </mxCell>
        <mxCell id="ZHzJpgnRnQhu1aiCEaPM-41" value="" style="endArrow=none;html=1;rounded=0;" edge="1" parent="1" source="ZHzJpgnRnQhu1aiCEaPM-38" target="ZHzJpgnRnQhu1aiCEaPM-8">
          <mxGeometry width="50" height="50" relative="1" as="geometry">
            <mxPoint x="340" y="620" as="sourcePoint" />
            <mxPoint x="390" y="570" as="targetPoint" />
          </mxGeometry>
        </mxCell>
        <mxCell id="ZHzJpgnRnQhu1aiCEaPM-42" value="142..250.208.148" style="text;strokeColor=none;align=center;fillColor=none;html=1;verticalAlign=middle;whiteSpace=wrap;rounded=0;" vertex="1" parent="1">
          <mxGeometry x="460" y="790" width="60" height="30" as="geometry" />
        </mxCell>
        <mxCell id="ZHzJpgnRnQhu1aiCEaPM-43" value="192.178.86.248" style="text;strokeColor=none;align=center;fillColor=none;html=1;verticalAlign=middle;whiteSpace=wrap;rounded=0;" vertex="1" parent="1">
          <mxGeometry x="405" y="660" width="60" height="30" as="geometry" />
        </mxCell>
        <mxCell id="ZHzJpgnRnQhu1aiCEaPM-44" value="" style="shape=sumEllipse;perimeter=ellipsePerimeter;whiteSpace=wrap;html=1;backgroundOutline=1;" vertex="1" parent="1">
          <mxGeometry x="260" y="700" width="80" height="80" as="geometry" />
        </mxCell>
        <mxCell id="ZHzJpgnRnQhu1aiCEaPM-46" value="" style="shape=sumEllipse;perimeter=ellipsePerimeter;whiteSpace=wrap;html=1;backgroundOutline=1;" vertex="1" parent="1">
          <mxGeometry x="350" y="850" width="80" height="80" as="geometry" />
        </mxCell>
        <mxCell id="ZHzJpgnRnQhu1aiCEaPM-47" value="" style="shape=sumEllipse;perimeter=ellipsePerimeter;whiteSpace=wrap;html=1;backgroundOutline=1;" vertex="1" parent="1">
          <mxGeometry x="535" y="890" width="80" height="80" as="geometry" />
        </mxCell>
        <mxCell id="ZHzJpgnRnQhu1aiCEaPM-48" value="" style="endArrow=none;html=1;rounded=0;" edge="1" parent="1" source="ZHzJpgnRnQhu1aiCEaPM-39" target="ZHzJpgnRnQhu1aiCEaPM-44">
          <mxGeometry width="50" height="50" relative="1" as="geometry">
            <mxPoint x="490" y="604" as="sourcePoint" />
            <mxPoint x="555" y="546" as="targetPoint" />
          </mxGeometry>
        </mxCell>
        <mxCell id="ZHzJpgnRnQhu1aiCEaPM-49" value="" style="endArrow=none;html=1;rounded=0;" edge="1" parent="1" source="ZHzJpgnRnQhu1aiCEaPM-46" target="ZHzJpgnRnQhu1aiCEaPM-38">
          <mxGeometry width="50" height="50" relative="1" as="geometry">
            <mxPoint x="720" y="860" as="sourcePoint" />
            <mxPoint x="770" y="810" as="targetPoint" />
          </mxGeometry>
        </mxCell>
        <mxCell id="ZHzJpgnRnQhu1aiCEaPM-50" value="" style="endArrow=none;html=1;rounded=0;" edge="1" parent="1" source="ZHzJpgnRnQhu1aiCEaPM-11" target="ZHzJpgnRnQhu1aiCEaPM-47">
          <mxGeometry width="50" height="50" relative="1" as="geometry">
            <mxPoint x="500" y="614" as="sourcePoint" />
            <mxPoint x="565" y="556" as="targetPoint" />
          </mxGeometry>
        </mxCell>
        <mxCell id="ZHzJpgnRnQhu1aiCEaPM-52" value="140.250.214.111" style="text;strokeColor=none;align=center;fillColor=none;html=1;verticalAlign=middle;whiteSpace=wrap;rounded=0;" vertex="1" parent="1">
          <mxGeometry x="230" y="675" width="60" height="30" as="geometry" />
        </mxCell>
        <mxCell id="ZHzJpgnRnQhu1aiCEaPM-53" value="192.178.110.204" style="text;strokeColor=none;align=center;fillColor=none;html=1;verticalAlign=middle;whiteSpace=wrap;rounded=0;" vertex="1" parent="1">
          <mxGeometry x="330" y="820" width="60" height="30" as="geometry" />
        </mxCell>
        <mxCell id="ZHzJpgnRnQhu1aiCEaPM-54" value="142.250.214.113" style="text;strokeColor=none;align=center;fillColor=none;html=1;verticalAlign=middle;whiteSpace=wrap;rounded=0;" vertex="1" parent="1">
          <mxGeometry x="630" y="940" width="60" height="30" as="geometry" />
        </mxCell>
        <mxCell id="ZHzJpgnRnQhu1aiCEaPM-60" value="" style="endArrow=none;html=1;rounded=0;" edge="1" parent="1" source="ZHzJpgnRnQhu1aiCEaPM-12" target="ZHzJpgnRnQhu1aiCEaPM-47">
          <mxGeometry width="50" height="50" relative="1" as="geometry">
            <mxPoint x="400" y="1160" as="sourcePoint" />
            <mxPoint x="450" y="1110" as="targetPoint" />
          </mxGeometry>
        </mxCell>
        <mxCell id="ZHzJpgnRnQhu1aiCEaPM-61" value="" style="endArrow=none;html=1;rounded=0;" edge="1" parent="1" source="ZHzJpgnRnQhu1aiCEaPM-10" target="ZHzJpgnRnQhu1aiCEaPM-46">
          <mxGeometry width="50" height="50" relative="1" as="geometry">
            <mxPoint x="400" y="1160" as="sourcePoint" />
            <mxPoint x="450" y="1110" as="targetPoint" />
          </mxGeometry>
        </mxCell>
        <mxCell id="ZHzJpgnRnQhu1aiCEaPM-64" value="0.771ms" style="text;strokeColor=none;align=center;fillColor=none;html=1;verticalAlign=middle;whiteSpace=wrap;rounded=0;" vertex="1" parent="1">
          <mxGeometry x="220" y="100" width="60" height="30" as="geometry" />
        </mxCell>
        <mxCell id="ZHzJpgnRnQhu1aiCEaPM-65" value="14.917ms" style="text;strokeColor=none;align=center;fillColor=none;html=1;verticalAlign=middle;whiteSpace=wrap;rounded=0;" vertex="1" parent="1">
          <mxGeometry x="440" y="100" width="60" height="30" as="geometry" />
        </mxCell>
        <mxCell id="ZHzJpgnRnQhu1aiCEaPM-66" value="24.502ms" style="text;strokeColor=none;align=center;fillColor=none;html=1;verticalAlign=middle;whiteSpace=wrap;rounded=0;" vertex="1" parent="1">
          <mxGeometry x="580" y="210" width="60" height="30" as="geometry" />
        </mxCell>
        <mxCell id="ZHzJpgnRnQhu1aiCEaPM-67" value="24.470ms" style="text;strokeColor=none;align=center;fillColor=none;html=1;verticalAlign=middle;whiteSpace=wrap;rounded=0;" vertex="1" parent="1">
          <mxGeometry x="440" y="290" width="60" height="30" as="geometry" />
        </mxCell>
        <mxCell id="ZHzJpgnRnQhu1aiCEaPM-68" value="14.747ms" style="text;strokeColor=none;align=center;fillColor=none;html=1;verticalAlign=middle;whiteSpace=wrap;rounded=0;" vertex="1" parent="1">
          <mxGeometry x="220" y="290" width="60" height="30" as="geometry" />
        </mxCell>
        <mxCell id="ZHzJpgnRnQhu1aiCEaPM-70" value="28.238ms" style="text;strokeColor=none;align=center;fillColor=none;html=1;verticalAlign=middle;whiteSpace=wrap;rounded=0;" vertex="1" parent="1">
          <mxGeometry x="140" y="400" width="60" height="30" as="geometry" />
        </mxCell>
        <mxCell id="ZHzJpgnRnQhu1aiCEaPM-71" value="42.955ms" style="text;strokeColor=none;align=center;fillColor=none;html=1;verticalAlign=middle;whiteSpace=wrap;rounded=0;" vertex="1" parent="1">
          <mxGeometry x="230" y="480" width="60" height="30" as="geometry" />
        </mxCell>
        <mxCell id="ZHzJpgnRnQhu1aiCEaPM-72" value="82.706ms" style="text;strokeColor=none;align=center;fillColor=none;html=1;verticalAlign=middle;whiteSpace=wrap;rounded=0;" vertex="1" parent="1">
          <mxGeometry x="580" y="585" width="60" height="30" as="geometry" />
        </mxCell>
        <mxCell id="ZHzJpgnRnQhu1aiCEaPM-73" value="82.376ms" style="text;strokeColor=none;align=center;fillColor=none;html=1;verticalAlign=middle;whiteSpace=wrap;rounded=0;" vertex="1" parent="1">
          <mxGeometry x="500" y="630" width="60" height="30" as="geometry" />
        </mxCell>
        <mxCell id="ZHzJpgnRnQhu1aiCEaPM-77" value="82.760ms" style="text;strokeColor=none;align=center;fillColor=none;html=1;verticalAlign=middle;whiteSpace=wrap;rounded=0;" vertex="1" parent="1">
          <mxGeometry x="450" y="550" width="60" height="30" as="geometry" />
        </mxCell>
        <mxCell id="ZHzJpgnRnQhu1aiCEaPM-78" value="81.707ms" style="text;strokeColor=none;align=center;fillColor=none;html=1;verticalAlign=middle;whiteSpace=wrap;rounded=0;" vertex="1" parent="1">
          <mxGeometry x="325" y="650" width="60" height="30" as="geometry" />
        </mxCell>
        <mxCell id="ZHzJpgnRnQhu1aiCEaPM-79" value="81.856ms" style="text;strokeColor=none;align=center;fillColor=none;html=1;verticalAlign=middle;whiteSpace=wrap;rounded=0;" vertex="1" parent="1">
          <mxGeometry x="414" y="820" width="60" height="30" as="geometry" />
        </mxCell>
        <mxCell id="ZHzJpgnRnQhu1aiCEaPM-80" value="81.944ms" style="text;strokeColor=none;align=center;fillColor=none;html=1;verticalAlign=middle;whiteSpace=wrap;rounded=0;" vertex="1" parent="1">
          <mxGeometry x="580" y="820" width="60" height="30" as="geometry" />
        </mxCell>
        <mxCell id="ZHzJpgnRnQhu1aiCEaPM-81" value="81.602ms" style="text;strokeColor=none;align=center;fillColor=none;html=1;verticalAlign=middle;whiteSpace=wrap;rounded=0;" vertex="1" parent="1">
          <mxGeometry x="175" y="900" width="60" height="30" as="geometry" />
        </mxCell>
        <mxCell id="ZHzJpgnRnQhu1aiCEaPM-82" value="81.564ms" style="text;strokeColor=none;align=center;fillColor=none;html=1;verticalAlign=middle;whiteSpace=wrap;rounded=0;" vertex="1" parent="1">
          <mxGeometry x="370" y="1030" width="60" height="30" as="geometry" />
        </mxCell>
        <mxCell id="ZHzJpgnRnQhu1aiCEaPM-83" value="64.868ms" style="text;strokeColor=none;align=center;fillColor=none;html=1;verticalAlign=middle;whiteSpace=wrap;rounded=0;" vertex="1" parent="1">
          <mxGeometry x="340" y="930" width="60" height="30" as="geometry" />
        </mxCell>
      </root>
    </mxGraphModel>
  </diagram>
</mxfile>
